<svg xmlns="http://www.w3.org/2000/svg" xmlns:xlink="http://www.w3.org/1999/xlink" width="500" zoomAndPan="magnify" viewBox="0 0 375 374.999991" height="500" preserveAspectRatio="xMidYMid meet" version="1.0"><defs><g/></defs><rect x="-37.5" width="450" fill="#ffffff" y="-37.499999" height="449.999989" fill-opacity="1"/><rect x="-37.5" width="450" fill="#ffffff" y="-37.499999" height="449.999989" fill-opacity="1"/><rect x="-37.5" width="450" fill="#333954" y="-37.499999" height="449.999989" fill-opacity="1"/><g fill="#9ff7cd" fill-opacity="1"><g transform="translate(22.604516, 235.307339)"><g><path d="M 45.933594 22.796875 L 49.820312 21.277344 L 51.167969 17.730469 L 51.167969 7.261719 L 49.480469 3.546875 L 42.894531 -0.335938 L 41.542969 -5.066406 L 41.039062 -40.363281 L 40.363281 -44.753906 L 38.335938 -51.339844 L 36.476562 -54.210938 L 33.945312 -56.234375 L 32.425781 -59.105469 L 35.972656 -64.003906 L 38.335938 -66.539062 L 40.53125 -72.785156 L 41.375 -96.9375 L 40.867188 -103.859375 L 41.375 -112.808594 L 42.726562 -117.539062 L 49.3125 -121.253906 L 51.167969 -124.460938 L 51.339844 -135.609375 L 49.820312 -138.648438 L 46.273438 -140.84375 L 42.894531 -140.84375 L 29.214844 -139.15625 L 26.175781 -138.3125 L 23.304688 -136.960938 L 20.773438 -134.765625 L 16.886719 -129.527344 L 15.875 -126.488281 L 14.691406 -119.566406 L 14.1875 -99.132812 L 14.523438 -95.246094 L 14.015625 -91.699219 L 14.355469 -83.425781 L 13.511719 -78.359375 L 12.664062 -75.488281 L 10.300781 -73.292969 L 7.429688 -71.433594 L 4.730469 -70.929688 L 1.351562 -69.238281 L -0.167969 -65.523438 L 0 -62.316406 L -0.675781 -52.183594 L 1.519531 -48.804688 L 4.558594 -46.609375 L 7.769531 -45.933594 L 10.46875 -44.246094 L 12.496094 -41.710938 L 14.015625 -39.515625 L 14.1875 -34.449219 L 13.847656 -29.554688 L 14.015625 -25.839844 L 14.355469 -22.460938 L 13.847656 -15.535156 L 14.691406 1.6875 L 15.707031 8.613281 L 18.914062 14.523438 L 23.304688 18.914062 L 26.007812 20.265625 L 29.554688 21.449219 L 32.761719 21.449219 L 35.800781 22.628906 Z M 45.933594 22.796875 "/></g></g></g><g fill="#23db99" fill-opacity="1"><g transform="translate(76.803731, 235.307339)"><g><path d="M 44.078125 0.335938 L 55.390625 0 L 60.289062 -1.6875 L 61.976562 -6.417969 L 62.484375 -15.199219 L 61.976562 -21.617188 L 62.316406 -25.164062 L 62.148438 -31.917969 L 62.484375 -34.957031 L 61.976562 -38.671875 L 62.316406 -65.863281 L 61.808594 -69.410156 L 62.316406 -84.101562 L 63.667969 -89.167969 L 66.875 -91.195312 L 73.460938 -91.53125 L 79.710938 -90.6875 L 83.257812 -91.195312 L 86.296875 -91.023438 L 89.167969 -92.882812 L 91.195312 -96.597656 L 91.363281 -112.640625 L 89.503906 -116.019531 L 86.296875 -118.214844 L 75.824219 -118.214844 L 72.617188 -118.550781 L 69.070312 -118.046875 L 65.863281 -118.382812 L 52.183594 -117.707031 L 48.804688 -118.382812 L 45.597656 -118.550781 L 42.050781 -118.046875 L 38.335938 -118.382812 L 35.296875 -117.707031 L 25.332031 -118.214844 L 20.097656 -117.707031 L 8.273438 -118.382812 L 5.066406 -116.695312 L 3.039062 -112.808594 L 3.207031 -109.433594 L 2.871094 -100.988281 L 3.207031 -95.753906 L 4.730469 -92.714844 L 7.769531 -91.023438 L 11.144531 -91.363281 L 27.1875 -91.023438 L 30.398438 -89.335938 L 32.253906 -85.957031 L 31.917969 -80.554688 L 32.253906 -75.824219 L 32.085938 -72.109375 L 32.253906 -68.734375 L 31.917969 -64.003906 L 32.425781 -38.84375 L 32.085938 -35.464844 L 31.917969 -21.785156 L 32.253906 -18.238281 L 32.085938 -8.445312 L 31.75 -5.234375 L 33.945312 -1.519531 L 38.84375 0.167969 Z M 44.078125 0.335938 "/></g></g></g><g fill="#23db99" fill-opacity="1"><g transform="translate(171.20051, 235.307339)"><g><path d="M 12.328125 -4.730469 L 14.355469 -1.519531 L 17.5625 0.335938 L 20.941406 0.167969 L 27.695312 0.507812 L 31.242188 0.167969 L 38.335938 0.335938 L 41.882812 -1.6875 L 43.234375 -4.898438 L 43.570312 -8.105469 L 43.234375 -11.820312 L 43.234375 -41.710938 L 44.753906 -45.257812 L 48.300781 -47.453125 L 68.226562 -47.625 L 71.773438 -47.117188 L 74.8125 -47.117188 L 78.019531 -45.257812 L 79.710938 -42.050781 L 79.878906 -4.730469 L 81.738281 -2.027344 L 86.632812 0.167969 L 95.414062 0.167969 L 98.792969 -0.167969 L 105.71875 0.335938 L 108.925781 -1.859375 L 110.953125 -4.730469 L 110.613281 -20.097656 L 111.121094 -25.5 L 110.613281 -28.203125 L 110.785156 -112.980469 L 109.265625 -116.527344 L 105.886719 -117.875 L 86.464844 -118.046875 L 81.566406 -116.863281 L 79.878906 -112.808594 L 79.710938 -106.394531 L 80.046875 -103.523438 L 79.710938 -96.597656 L 80.21875 -93.390625 L 80.046875 -80.21875 L 78.191406 -76.839844 L 74.8125 -74.980469 L 71.605469 -75.488281 L 65.019531 -74.8125 L 61.472656 -75.152344 L 58.429688 -74.8125 L 48.46875 -74.980469 L 45.257812 -76.5 L 43.570312 -79.710938 L 43.402344 -83.425781 L 43.402344 -86.972656 L 43.234375 -90.011719 L 43.402344 -103.183594 L 43.738281 -106.898438 L 43.402344 -113.148438 L 41.882812 -116.355469 L 38.335938 -118.214844 L 34.621094 -117.875 L 17.902344 -118.214844 L 14.1875 -116.527344 L 12.496094 -113.148438 L 12.160156 -109.433594 L 12.496094 -96.261719 L 12.160156 -92.882812 L 12.835938 -85.957031 L 12.496094 -79.542969 L 12.664062 -75.488281 L 12.328125 -72.109375 L 12.328125 -21.617188 L 12.835938 -18.578125 Z M 12.328125 -4.730469 "/></g></g></g><g fill="#9ff7cd" fill-opacity="1"><g transform="translate(294.807627, 235.307339)"><g><path d="M 2.871094 17.5625 L 4.558594 21.277344 L 7.597656 22.96875 L 11.316406 22.628906 L 14.523438 22.796875 L 24.320312 21.449219 L 27.359375 19.925781 L 30.566406 18.914062 L 35.125 14.015625 L 36.984375 10.808594 L 38.335938 8.105469 L 39.347656 4.558594 L 39.855469 -15.875 L 39.515625 -19.082031 L 40.023438 -29.382812 L 39.6875 -34.449219 L 40.191406 -39.179688 L 41.542969 -42.050781 L 43.402344 -44.753906 L 52.691406 -48.804688 L 54.546875 -52.351562 L 54.210938 -55.730469 L 54.714844 -60.121094 L 54.546875 -63.835938 L 52.691406 -68.902344 L 49.3125 -71.097656 L 46.105469 -71.773438 L 43.570312 -73.460938 L 41.375 -75.996094 L 40.191406 -78.359375 L 40.023438 -91.871094 L 39.6875 -95.585938 L 39.855469 -99.132812 L 39.347656 -119.566406 L 39.179688 -122.4375 L 38.167969 -125.984375 L 36.816406 -129.191406 L 35.296875 -132.0625 L 33.101562 -135.101562 L 30.566406 -136.789062 L 24.65625 -139.492188 L 11.144531 -140.84375 L 7.9375 -140.675781 L 4.222656 -138.816406 L 2.53125 -135.441406 L 2.703125 -124.96875 L 4.730469 -121.253906 L 7.9375 -119.058594 L 11.144531 -117.875 L 12.664062 -112.640625 L 13.171875 -72.617188 L 15.535156 -66.707031 L 17.394531 -63.835938 L 19.925781 -61.808594 L 21.449219 -58.769531 L 19.925781 -56.066406 L 17.5625 -54.039062 L 15.707031 -51.507812 L 13.511719 -45.257812 L 12.496094 -5.066406 L 10.976562 -0.167969 L 4.390625 3.546875 L 3.039062 7.261719 L 2.871094 10.46875 L 3.039062 14.015625 Z M 2.871094 17.5625 "/></g></g></g></svg>